<!-- 
 -->
<svg xmlns="http://www.w3.org/2000/svg" viewBox="0 0 1700.13 456.23"><defs><style>.cls-1,.cls-6{fill:#231f20;}.cls-1,.cls-2,.cls-3,.cls-4,.cls-5{fill-rule:evenodd;}.cls-2{fill:#fff;}.cls-3{fill:#c2c0bf;}.cls-4{fill:#8d9092;}.cls-5,.cls-7{fill:#ed1c24;}.cls-7{font-size:83.26px;font-family:Noteworthy-Bold, Noteworthy;font-weight:700;letter-spacing:0.11em;}.cls-8{letter-spacing:0.13em;}.cls-9{letter-spacing:0.05em;}.cls-10{letter-spacing:0.08em;}.cls-11{letter-spacing:0.13em;}.cls-12{letter-spacing:0.11em;}.cls-13{letter-spacing:0.09em;}.cls-14{letter-spacing:0.13em;}</style></defs><g id="Layer_2" data-name="Layer 2"><g id="Layer_2-2" data-name="Layer 2"><polygon class="cls-1" points="124.68 434.26 99.26 455.42 99.26 392.44 150.1 392.44 150.1 456.24 124.68 434.26"/><path class="cls-1" d="M298.19,394.57s-9.35-26.08.82-49.2c10.17-23.29-219.26-9.84-222.87-9.84S87.62,411,87.62,411L292,418.51Z"/><path class="cls-1" d="M290.81,425.4H132.06v-38H291.3c10.17,0,19.19,6.89,20,17.39,1,12-9,20.66-20.5,20.66ZM113.86,32.29A89.85,89.85,0,0,1,218,7.2a83,83,0,0,1,35.26,27.38c22.3-2.29,45.26.33,64.94,11.65a79.3,79.3,0,0,1,35.92,43.62c6.88,20,5.57,42.32-2.63,61.67-8,19-22.14,34.11-39.52,44.44q.24,63,.33,125.63c0,26.73-18.54,37.88-42.81,37.88H109.27c-4.1,0-7.71,1-10,4.43a16.82,16.82,0,0,0-2.62,9.35c0,4.59,2,13.28,7.54,14.1l12.63,1.48v37.56l-15.74-1.48c-31.82-3-43.46-29.85-43-58.88,0-51.17.33-102.5.33-153.67a53.94,53.94,0,0,1-37.89-13.44C1.85,182.68-4.88,155.45,3.65,132.17,8.74,118.39,17.92,108.22,29.07,101c-2-19.69,4.59-38.55,19-52.32A69.28,69.28,0,0,1,101.72,30a75.16,75.16,0,0,1,12.14,2.3Z"/><path class="cls-2" d="M72.69,204c12.14-21.49,70.36-56.42,169.74-52.65,0,0-131.69-25.74-181.54,46.58-54.12,5.58-76.75-90.86,19.84-98.24,0,0-18.37-4.92-37.06,2.3C35.3,47.7,110.25,19.66,142.89,71.48c0,0-8-22.79-19.52-28.37C164.86-8.71,251,12.28,256,83c0,0,4.6-22.3-3.6-33.94,103.48-12.3,120.86,102.17,45.1,138.41.32,55.27.32,79.05.32,134.16,0,19.35-13.28,23.45-28.37,23.45H109.27c-34.44,0-33.62,49-9.84,55.76v9.51C80.57,407,71.87,390.63,72.53,366.2c0-64.45.16-129.89.16-162.2Z"/><path class="cls-3" d="M290.81,411.13h-141v-9.51H291.3c7.88,0,7.71,9.51-.49,9.51Z"/><path class="cls-3" d="M260.31,345s-61.5-2.62-101.84-12.79c-32.15-7.87-45.27-25.59-45.27-45.92V197.27l-.82-23.61C91.23,183.5,77.78,195,72.69,204c0,32.31-.16,97.75-.16,162.2-.66,24.43,8,40.83,26.9,44.11V400.8C75.65,394.08,74.83,345,109.27,345ZM242.43,151.35S142.56,117.24,61.05,164C45.64,118.55,88,98.05,123.37,111.34c-34.44-21.16-69.86-7.22-79.54-2.46C-8,134.79,15.29,202.52,60.89,197.93c49.85-72.32,181.54-46.58,181.54-46.58ZM70.23,98.22c.5-6.07,4.43-34.12,31.82-39.86,24.44-4.92,35.75,6.07,39.36,11C108.12,20.48,35.47,48.36,43.67,102a62.72,62.72,0,0,1,26.56-3.77Zm67.24-38.71c4.92-5.25,29.36-28.7,67.24-18.86C247.35,51.8,256,83,256,83,251,12.28,164.86-8.71,123.37,43.11c5.74,2.79,10.66,10,14.1,16.4Zm119.89,9.35c34.93-4.76,62,.49,83.47,26.24-9.67-29.36-39.36-52-88.39-46.08,3.93,5.41,4.92,13.12,4.92,19.84Z"/><path class="cls-4" d="M284.42,394.24H149.77V369.81H99.43v23.12c-14.93-7.22-12.47-40.34,8-40.34h177A64.7,64.7,0,0,0,282,362.1l-107.59,1.47-13.28,2L281,369.64c-.16,3.12-.16,6.07-.16,9-18.21.33-73.64,1.15-73.64,1.15L282,387a24.84,24.84,0,0,0,2.46,7.21Z"/><polygon class="cls-5" points="108.61 377.02 140.59 377.02 140.59 436.56 125.01 421.79 108.61 436.56 108.61 377.02"/><path class="cls-6" d="M424.09,203.13v66.66H393.73V102.9h52.46q35.94,0,53.22,12.1t17.27,36.53q0,31.16-36.07,44.4l52.45,73.86H498.52l-44.46-66.66Zm0-22.61h21.08q21.21,0,30.74-7.07t9.52-21q0-14.15-10.28-20.32t-31-6.16H424.09Z"/><path class="cls-6" d="M605.16,272.07q-32.77,0-51.25-17.18t-18.48-47.31q0-30.93,17.14-48.63t47.13-17.69q27.81,0,43.94,15.18t16.14,41.78v14.5H566.17q.63,18.38,11.05,28.25t29.34,9.87a120,120,0,0,0,23.18-2.11,131.58,131.58,0,0,0,23-7v21.8a98.79,98.79,0,0,1-22.1,6.62A149.74,149.74,0,0,1,605.16,272.07ZM599.7,161.58q-14.24,0-22.8,8.1t-10.23,23.63h63.76q-.25-15.65-8.38-23.69T599.7,161.58Z"/><path class="cls-6" d="M737.33,272.07q-31.89,0-48.46-16.72t-16.57-48q0-31.84,17.34-49t50.1-17.12q22.23,0,40,7.42l-9,21.57q-18.93-6.62-31.25-6.62-36.45,0-36.45,43.49,0,21.24,9.08,31.91t26.61,10.67a83.22,83.22,0,0,0,37.72-8.9v23.4a63.25,63.25,0,0,1-17.08,6.05A114.41,114.41,0,0,1,737.33,272.07Z"/><path class="cls-6" d="M794.69,110.09q0-7.19,4.38-11.07t12.51-3.88q7.88,0,12.26,3.88t4.38,11.07q0,6.85-4.38,10.79t-12.26,3.94q-8.13,0-12.51-3.94T794.69,110.09Zm31.63,159.7H796.47V143.54h29.85Z"/><path class="cls-6" d="M927.24,272.07q-26.67,0-41.4-17.23h-1.78q1.77,16,1.78,19.4V326H856V143.54h24.13q1,3.54,4.19,16.89h1.53q14-19.17,41.91-19.17,26.29,0,41,17.12t14.67,48.06q0,30.93-14.92,48.28T927.24,272.07ZM920,163.17q-17.78,0-26,9.36t-8.19,29.91v4q0,23.06,8.13,33.39t26.54,10.33q15.5,0,23.88-11.42t8.38-32.53q0-21.24-8.32-32.13T920,163.17Z"/><path class="cls-6" d="M1066.4,272.07q-32.78,0-51.25-17.18t-18.48-47.31q0-30.93,17.15-48.63t47.12-17.69q27.81,0,44,15.18T1121,198.22v14.5h-93.61q.63,18.38,11,28.25t29.34,9.87a120,120,0,0,0,23.18-2.11,131.58,131.58,0,0,0,23-7v21.8a98.79,98.79,0,0,1-22.1,6.62A149.74,149.74,0,0,1,1066.4,272.07Zm-5.46-110.49q-14.22,0-22.8,8.1t-10.22,23.63h63.76q-.26-15.65-8.39-23.69T1060.94,161.58Z"/><path class="cls-6" d="M1148.15,102.9h52.46q37,0,53.47,9.93t16.51,31.39q0,14.85-9.21,24.49t-26.86,12.5v1.14q42.3,6.51,42.29,40,0,22.38-16.82,34.93t-47.06,12.56h-64.78Zm21.59,71.46h35.56q22.88,0,32.9-6.45t10-21.75q0-14-11.18-20.26t-35.57-6.22h-31.75Zm0,16.44v62.44h38.74q22.49,0,33.85-7.82t11.37-24.49q0-15.51-11.62-22.83t-35.38-7.3Z"/><path class="cls-6" d="M1420.67,207.12q0,30.6-17.14,47.77t-47.38,17.18q-18.68,0-33.15-7.87a54.31,54.31,0,0,1-22.36-22.6q-7.87-14.73-7.87-34.48,0-30.59,17-47.66T1357,142.4q29.2,0,46.42,17.46T1420.67,207.12Zm-106.06,0q0,24,10.67,36.53t31.38,12.56q20.7,0,31.43-12.5t10.74-36.59q0-23.85-10.74-36.24t-31.69-12.39q-20.7,0-31.24,12.22T1314.61,207.12Z"/><path class="cls-6" d="M1564.78,207.12q0,30.6-17.14,47.77t-47.38,17.18q-18.67,0-33.15-7.87a54.37,54.37,0,0,1-22.36-22.6q-7.87-14.73-7.87-34.48,0-30.59,17-47.66t47.25-17.06q29.2,0,46.42,17.46T1564.78,207.12Zm-106,0q0,24,10.66,36.53t31.38,12.56q20.7,0,31.43-12.5t10.74-36.59q0-23.85-10.74-36.24t-31.69-12.39q-20.7,0-31.24,12.22T1458.73,207.12Z"/><path class="cls-6" d="M1609.57,205.75a229.37,229.37,0,0,1,16.64-18.26l45-42.81h25L1639.8,198l60.33,71.8H1674.6l-49.15-59.13L1609.57,223v46.8h-20.83V92.17h20.83v94.18q0,6.27-1,19.4Z"/><text class="cls-7" transform="translate(393.73 403.85)">Kee<tspan class="cls-8" x="170.11" y="0">p</tspan><tspan x="223" y="0">ing </tspan><tspan class="cls-9" x="381.99" y="0">t</tspan><tspan x="416.77" y="0">as</tspan><tspan class="cls-10" x="521.3" y="0">t</tspan><tspan x="559.2" y="0">e</tspan><tspan class="cls-11" x="608.24" y="0">b</tspan><tspan class="cls-12" x="662.06" y="0">u</tspan><tspan class="cls-13" x="709.75" y="0">d</tspan><tspan x="759.62" y="0">s h</tspan><tspan class="cls-14" x="885.29" y="0">a</tspan><tspan class="cls-12" x="940.88" y="0">ppy</tspan></text></g></g></svg>
